<svg version="1" xmlns="http://www.w3.org/2000/svg" width="933.333" height="933.333" viewBox="0 0 700.000000 700.000000"><path d="M105.6 68.1c-6.5.5-13.6 1.4-15.7 1.9-5.4 1.5-11.8 6.7-14.6 11.9-2.2 4.3-2.3 5-2.3 32.7v28.2l-27.2.4c-30.7.4-33.1.9-39.4 8-7 8-6.5-12.3-6.2 238.3l.3 226.1 2.5 4.8c5.1 10 16 14.4 27.5 11.3 45-12.4 63-16.4 90.5-20.6 28.2-4.3 40.6-5.2 72.5-5.8 25.6-.4 35.3-.2 48.5 1.1 36.3 3.7 60.1 9.3 90.1 21.2 8.9 3.5 15.2 5.4 17.9 5.4 2.7 0 9-1.9 18.1-5.5 26-10.3 50.4-16.4 80.4-20.2 22-2.8 81.4-2.5 106.5.6 36 4.3 67.8 10.7 101.2 20.1 23.4 6.7 28.4 6.3 37.2-2.4 7.1-7.2 6.6 12.1 6.6-238V162.5l-2.4-5c-2.8-5.9-6.6-9.7-12.1-12.2-3.4-1.5-7.8-1.8-31.2-2.1l-27.2-.4-.3-29.3-.3-29.3-3-4.3c-6.9-9.8-13.1-11.4-47.5-12.5-84.2-2.7-159.4 22.4-207.6 69.2-4.4 4.4-10.4 10.6-13.2 13.9l-5.2 6-5.2-6c-36.1-42.1-90.3-69.6-156.3-79.5-26-3.9-54.9-4.9-82.9-2.9zm68.9 48.4c53.3 6.9 94.3 24.8 125.3 54.9 7.7 7.5 17.8 19.7 23.1 28l3.1 5v168.3c0 92.6-.3 168.3-.6 168.3s-3.4-2.5-7-5.5c-15.2-12.8-40.3-27.5-61.4-35.8-36.6-14.5-76.1-21.7-118.7-21.7H120V113.7l21.3.6c11.6.3 26.6 1.3 33.2 2.2zM580 295.9v181.8l-24.2.6c-43 .9-77.6 7.5-112.8 21.4-21.1 8.3-46.2 23-61.4 35.8-3.6 3-6.7 5.5-7 5.5-.3 0-.6-75.8-.6-168.3V204.3l3.8-5.9c27.8-43 77.7-71.5 141.7-81 13.6-2 28.8-3.1 46.8-3.3l13.7-.1v181.9zM73 350.5l.5 160 2.2 4.2c2.8 5.2 7.7 9 14 10.9 3.8 1.2 6.7 1.2 14.6.4 12.8-1.3 44-1.3 58.7 0 35.3 3.2 66 11.5 93.1 25.1 7.8 3.9 21 11.9 19.7 11.9-.4 0-7.6-.9-16-2-20-2.5-55-4.3-70.8-3.5-47.9 2.3-87.6 7.6-126.9 17-7.9 1.9-14.5 3.5-14.7 3.5-.2 0-.4-87.3-.4-194V189.9l12.8.3 12.7.3.5 160zM653 384c0 106.7-.2 194-.4 194s-6.8-1.6-14.7-3.5c-39.3-9.4-79-14.7-126.9-17-15.8-.8-50.8 1-70.8 3.5-8.4 1.1-15.6 2-16 2-1.3 0 11.9-8 19.7-11.9 27-13.6 58.2-22 92.6-25 15.1-1.4 47.1-1.4 59.5-.1 7.6.8 10.4.7 14.5-.5 5.9-1.7 11.5-6.3 14.4-12 2.1-4 2.1-4.5 2.1-163.1 0-87.5.3-159.4.7-159.7.3-.4 6.2-.7 13-.7H653v194z"/></svg>